<mxfile host="Electron" modified="2024-02-03T02:01:40.739Z" agent="Mozilla/5.0 (Windows NT 10.0; Win64; x64) AppleWebKit/537.36 (KHTML, like Gecko) draw.io/23.0.2 Chrome/120.0.6099.109 Electron/28.1.0 Safari/537.36" etag="XNHKUqT_IkfZoW0RHYoS" version="23.0.2" type="device">
  <diagram name="PÃ¡gina-1" id="5jym6U6AyGinkKLPc_Tt">
    <mxGraphModel dx="1408" dy="819" grid="1" gridSize="10" guides="1" tooltips="1" connect="1" arrows="1" fold="1" page="1" pageScale="1" pageWidth="827" pageHeight="1169" math="0" shadow="0">
      <root>
        <mxCell id="0" />
        <mxCell id="1" parent="0" />
        <mxCell id="aMDfOSz1MNIkEyvc4FVr-3" style="edgeStyle=orthogonalEdgeStyle;rounded=0;orthogonalLoop=1;jettySize=auto;html=1;exitX=1;exitY=0.5;exitDx=0;exitDy=0;exitPerimeter=0;" edge="1" parent="1" source="aMDfOSz1MNIkEyvc4FVr-1" target="aMDfOSz1MNIkEyvc4FVr-2">
          <mxGeometry relative="1" as="geometry" />
        </mxCell>
        <mxCell id="aMDfOSz1MNIkEyvc4FVr-1" value="cancel" style="strokeWidth=2;html=1;shape=mxgraph.flowchart.start_2;whiteSpace=wrap;" vertex="1" parent="1">
          <mxGeometry x="30" y="300" width="100" height="100" as="geometry" />
        </mxCell>
        <mxCell id="aMDfOSz1MNIkEyvc4FVr-2" value="click" style="rounded=1;whiteSpace=wrap;html=1;absoluteArcSize=1;arcSize=14;strokeWidth=2;" vertex="1" parent="1">
          <mxGeometry x="220" y="300" width="100" height="100" as="geometry" />
        </mxCell>
        <mxCell id="aMDfOSz1MNIkEyvc4FVr-4" value="dump state" style="shape=parallelogram;html=1;strokeWidth=2;perimeter=parallelogramPerimeter;whiteSpace=wrap;rounded=1;arcSize=12;size=0.23;" vertex="1" parent="1">
          <mxGeometry x="360" y="240" width="100" height="60" as="geometry" />
        </mxCell>
        <mxCell id="aMDfOSz1MNIkEyvc4FVr-5" style="edgeStyle=orthogonalEdgeStyle;rounded=0;orthogonalLoop=1;jettySize=auto;html=1;exitX=1;exitY=0.5;exitDx=0;exitDy=0;entryX=0.43;entryY=0.983;entryDx=0;entryDy=0;entryPerimeter=0;" edge="1" parent="1" source="aMDfOSz1MNIkEyvc4FVr-2" target="aMDfOSz1MNIkEyvc4FVr-4">
          <mxGeometry relative="1" as="geometry" />
        </mxCell>
        <mxCell id="aMDfOSz1MNIkEyvc4FVr-13" style="edgeStyle=orthogonalEdgeStyle;rounded=0;orthogonalLoop=1;jettySize=auto;html=1;exitX=0.5;exitY=0;exitDx=0;exitDy=0;exitPerimeter=0;entryX=0;entryY=0.5;entryDx=0;entryDy=0;" edge="1" parent="1" source="aMDfOSz1MNIkEyvc4FVr-6" target="aMDfOSz1MNIkEyvc4FVr-12">
          <mxGeometry relative="1" as="geometry" />
        </mxCell>
        <mxCell id="aMDfOSz1MNIkEyvc4FVr-15" style="edgeStyle=orthogonalEdgeStyle;rounded=0;orthogonalLoop=1;jettySize=auto;html=1;exitX=0.5;exitY=1;exitDx=0;exitDy=0;exitPerimeter=0;entryX=0;entryY=0.5;entryDx=0;entryDy=0;" edge="1" parent="1" source="aMDfOSz1MNIkEyvc4FVr-6" target="aMDfOSz1MNIkEyvc4FVr-14">
          <mxGeometry relative="1" as="geometry" />
        </mxCell>
        <mxCell id="aMDfOSz1MNIkEyvc4FVr-6" value="options" style="strokeWidth=2;html=1;shape=mxgraph.flowchart.decision;whiteSpace=wrap;" vertex="1" parent="1">
          <mxGeometry x="500" y="300" width="100" height="100" as="geometry" />
        </mxCell>
        <mxCell id="aMDfOSz1MNIkEyvc4FVr-7" style="edgeStyle=orthogonalEdgeStyle;rounded=0;orthogonalLoop=1;jettySize=auto;html=1;exitX=1;exitY=0.5;exitDx=0;exitDy=0;entryX=0;entryY=0.5;entryDx=0;entryDy=0;entryPerimeter=0;" edge="1" parent="1" source="aMDfOSz1MNIkEyvc4FVr-2" target="aMDfOSz1MNIkEyvc4FVr-6">
          <mxGeometry relative="1" as="geometry" />
        </mxCell>
        <mxCell id="aMDfOSz1MNIkEyvc4FVr-9" value="no" style="text;html=1;align=center;verticalAlign=middle;resizable=0;points=[];autosize=1;strokeColor=none;fillColor=none;" vertex="1" parent="1">
          <mxGeometry x="540" y="255" width="40" height="30" as="geometry" />
        </mxCell>
        <mxCell id="aMDfOSz1MNIkEyvc4FVr-10" value="yes&lt;br&gt;" style="text;html=1;align=center;verticalAlign=middle;resizable=0;points=[];autosize=1;strokeColor=none;fillColor=none;" vertex="1" parent="1">
          <mxGeometry x="540" y="408" width="40" height="30" as="geometry" />
        </mxCell>
        <mxCell id="aMDfOSz1MNIkEyvc4FVr-12" value="do nothing" style="rounded=1;whiteSpace=wrap;html=1;absoluteArcSize=1;arcSize=14;strokeWidth=2;" vertex="1" parent="1">
          <mxGeometry x="610" y="170" width="100" height="100" as="geometry" />
        </mxCell>
        <mxCell id="aMDfOSz1MNIkEyvc4FVr-14" value="goes back to&amp;nbsp;&lt;br&gt;file selection" style="rounded=1;whiteSpace=wrap;html=1;absoluteArcSize=1;arcSize=14;strokeWidth=2;" vertex="1" parent="1">
          <mxGeometry x="600" y="408" width="100" height="100" as="geometry" />
        </mxCell>
      </root>
    </mxGraphModel>
  </diagram>
</mxfile>
